<?xml version="1.0" encoding="utf-8"?>
<!-- Generator: Adobe Illustrator 25.2.1, SVG Export Plug-In . SVG Version: 6.00 Build 0)  -->
<svg version="1.1" id="Layer_1" xmlns="http://www.w3.org/2000/svg" xmlns:xlink="http://www.w3.org/1999/xlink" x="0px" y="0px"
	 viewBox="0 0 107.8 31.5" style="enable-background:new 0 0 107.8 31.5;" xml:space="preserve">
<style type="text/css">
	.st0{fill:#154734;}
</style>
<g>
	<path class="st0" d="M100.5,11.6c-0.4,0-0.8,0.4-0.8,0.8v8.5c0,0.4,0.4,0.8,0.8,0.8c0.4,0,0.8-0.4,0.8-0.8v-8.5
		C101.3,11.9,101,11.6,100.5,11.6z"/>
	<path class="st0" d="M74.9,12C74.8,12,74.8,12,74.9,12c-0.1-0.1-0.1-0.1-0.1-0.1c0,0,0,0-0.1-0.1c0,0,0,0-0.1,0c0,0-0.1,0-0.1-0.1
		c0,0,0,0,0,0c0,0,0,0,0,0c0,0-0.1,0-0.1,0c0,0,0,0-0.1,0c0,0,0,0-0.1,0c0,0-0.1,0-0.1,0c0,0,0,0-0.1,0c0,0-0.1,0-0.1,0
		c0,0,0,0-0.1,0c0,0-0.1,0-0.1,0c0,0,0,0-0.1,0c0,0-0.1,0-0.1,0c0,0,0,0,0,0c0,0,0,0,0,0c0,0-0.1,0-0.1,0.1c0,0,0,0,0,0
		c0,0,0,0-0.1,0.1c0,0,0,0,0,0.1c0,0,0,0,0,0.1l-4.7,8.5c-0.2,0.4-0.1,0.9,0.3,1.1c0.1,0.1,0.3,0.1,0.4,0.1c0.3,0,0.6-0.2,0.7-0.4
		l4-7.2l4,7.2c0.1,0.3,0.4,0.4,0.7,0.4c0.1,0,0.3,0,0.4-0.1c0.4-0.2,0.5-0.7,0.3-1.1L74.9,12z"/>
	<path class="st0" d="M93.6,11.7c-0.4-0.2-0.9-0.1-1.1,0.3l-4,7.2l-4-7.2c-0.2-0.4-0.7-0.5-1.1-0.3c-0.4,0.2-0.5,0.7-0.3,1.1
		l4.7,8.5c0,0,0,0,0,0c0,0,0.1,0.1,0.1,0.1c0,0,0,0,0,0c0,0,0.1,0.1,0.1,0.1c0,0,0,0,0,0c0,0,0,0,0,0c0,0,0.1,0,0.1,0
		c0,0,0.1,0,0.1,0c0.1,0,0.1,0,0.2,0c0,0,0,0,0,0s0,0,0,0c0.1,0,0.1,0,0.2,0c0,0,0.1,0,0.1,0c0,0,0.1,0,0.1,0c0,0,0,0,0,0
		c0,0,0,0,0,0c0,0,0.1-0.1,0.1-0.1c0,0,0,0,0,0c0,0,0.1-0.1,0.1-0.1c0,0,0,0,0,0l4.7-8.5C94.1,12.4,94,11.9,93.6,11.7z"/>
	<path class="st0" d="M64.6,11.6h-6.8c-0.4,0-0.8,0.4-0.8,0.8s0.4,0.8,0.8,0.8h2.6v7.7c0,0.4,0.4,0.8,0.8,0.8s0.8-0.4,0.8-0.8v-7.7
		h2.6c0.4,0,0.8-0.4,0.8-0.8S65,11.6,64.6,11.6z"/>
	<path class="st0" d="M50.4,11.6c-0.4,0-0.8,0.4-0.8,0.8v8.5c0,0.4,0.4,0.8,0.8,0.8s0.8-0.4,0.8-0.8v-8.5
		C51.2,11.9,50.8,11.6,50.4,11.6z"/>
	<path class="st0" d="M43.5,11.7c-0.4-0.2-0.9-0.1-1.1,0.3l-4,7.2l-4-7.2c-0.2-0.4-0.7-0.5-1.1-0.3c-0.4,0.2-0.5,0.7-0.3,1.1
		l4.7,8.5c0,0,0,0,0,0c0,0,0.1,0.1,0.1,0.1c0,0,0,0,0,0c0,0,0.1,0.1,0.1,0.1c0,0,0,0,0,0c0,0,0,0,0,0c0,0,0.1,0,0.1,0
		c0,0,0.1,0,0.1,0c0.1,0,0.1,0,0.2,0c0,0,0,0,0,0c0,0,0,0,0,0c0.1,0,0.1,0,0.2,0c0,0,0.1,0,0.1,0c0,0,0.1,0,0.1,0c0,0,0,0,0,0
		c0,0,0,0,0,0c0,0,0.1-0.1,0.1-0.1c0,0,0,0,0,0c0,0,0.1-0.1,0.1-0.1c0,0,0,0,0,0l4.7-8.5C44,12.4,43.9,11.9,43.5,11.7z"/>
	<circle class="st0" cx="14.8" cy="25.8" r="1.2"/>
	<circle class="st0" cx="24" cy="16.6" r="1.2"/>
	<ellipse transform="matrix(0.9871 -0.1602 0.1602 0.9871 -1.008 2.4701)" class="st0" cx="14.8" cy="7.5" rx="1.2" ry="1.2"/>
	<circle class="st0" cx="5.7" cy="16.6" r="1.2"/>
	<ellipse transform="matrix(0.9732 -0.2298 0.2298 0.9732 -3.4286 3.8495)" class="st0" cx="14.8" cy="16.6" rx="1.2" ry="1.2"/>
	<path class="st0" d="M20.4,22.2c-0.5,0.5-0.5,1.3,0,1.8c0.5,0.5,1.3,0.5,1.8,0s0.5-1.3,0-1.8C21.7,21.8,20.9,21.8,20.4,22.2z"/>
	<path class="st0" d="M20.4,9.3c-0.5,0.5-0.5,1.3,0,1.8c0.5,0.5,1.3,0.5,1.8,0c0.5-0.5,0.5-1.3,0-1.8C21.7,8.8,20.9,8.8,20.4,9.3z"
		/>
	<circle class="st0" cx="8.3" cy="10.2" r="1.2"/>
	<circle class="st0" cx="8.3" cy="23.1" r="1.2"/>
	<path class="st0" d="M16.4,20.3c-0.4,0.1-0.5,0.6-0.4,0.9c0.1,0.4,0.6,0.5,0.9,0.4c0.4-0.1,0.5-0.6,0.4-0.9
		C17.1,20.3,16.7,20.2,16.4,20.3z"/>
	<path class="st0" d="M18.9,14.2c-0.4,0.1-0.5,0.6-0.4,0.9c0.1,0.4,0.6,0.5,0.9,0.4c0.4-0.1,0.5-0.6,0.4-0.9
		C19.7,14.2,19.3,14.1,18.9,14.2z"/>
	<path class="st0" d="M13.3,13c0.4-0.1,0.5-0.6,0.4-0.9c-0.1-0.4-0.6-0.5-0.9-0.4c-0.4,0.1-0.5,0.6-0.4,0.9
		C12.5,13,12.9,13.1,13.3,13z"/>
	<circle class="st0" cx="10.5" cy="18.4" r="0.7"/>
	<path class="st0" d="M19.4,17.8c-0.4-0.1-0.8,0-0.9,0.4c-0.1,0.4,0,0.8,0.4,0.9c0.4,0.1,0.8,0,0.9-0.4C20,18.3,19.8,17.9,19.4,17.8
		z"/>
	<path class="st0" d="M16.9,11.7c-0.4-0.1-0.8,0-0.9,0.4c-0.1,0.4,0,0.8,0.4,0.9c0.4,0.1,0.8,0,0.9-0.4
		C17.4,12.2,17.3,11.8,16.9,11.7z"/>
	<path class="st0" d="M10.7,14.2c-0.4-0.1-0.8,0-0.9,0.4c-0.1,0.4,0,0.8,0.4,0.9c0.4,0.1,0.8,0,0.9-0.4
		C11.3,14.8,11.1,14.4,10.7,14.2z"/>
	<path class="st0" d="M13.3,20.3c-0.4-0.1-0.8,0-0.9,0.4c-0.1,0.4,0,0.8,0.4,0.9c0.4,0.1,0.8,0,0.9-0.4
		C13.8,20.9,13.6,20.5,13.3,20.3z"/>
</g>
</svg>
